/* XPM */
const static char * trackcart_xpm[] = {
"16 16 7 1",
" 	c None",
".	c #000000",
"+	c #808000",
"@	c #808080",
"#	c #D94128",
"$	c #C0C0C0",
"%	c #FFFFFF",
"       ..       ",
"      +@.@      ",
"     +#.$$      ",
"    +#@@$%@   @ ",
"   +##.$%%@  @  ",
" ++###.$%%@ @   ",
"+#$###..%%@     ",
"+#$###.$.%@     ",
"+#$###.@.%@ @@@@",
".+@###..%%@     ",
" ..+##.$%%@     ",
"   .+#.$%%@ @   ",
"    .+@@%%@  @  ",
"     .+.$$@   @ ",
"      .+.@      ",
"       ..       "};
